<mxfile host="app.diagrams.net" modified="2023-12-04T10:20:10.342Z" agent="Mozilla/5.0 (Windows NT 10.0; Win64; x64) AppleWebKit/537.36 (KHTML, like Gecko) Chrome/119.0.0.0 Safari/537.36" version="22.1.5" etag="dZoIDGV30AnnBZXNwoD2" type="github">
  <diagram name="第 1 页" id="xmZo9Y3WGvvwSq47yf73">
    <mxGraphModel>
      <root>
        <mxCell id="0" />
        <mxCell id="1" parent="0" />
      </root>
    </mxGraphModel>
  </diagram>
</mxfile>
